<?xml version="1.0" standalone="no"?>
<!DOCTYPE svg PUBLIC "-//W3C//DTD SVG 20010904//EN"
 "http://www.w3.org/TR/2001/REC-SVG-20010904/DTD/svg10.dtd">
<svg version="1.0" xmlns="http://www.w3.org/2000/svg"
 width="512.000000pt" height="512.000000pt" viewBox="0 0 512.000000 512.000000"
 preserveAspectRatio="xMidYMid meet">
<metadata>
Created by potrace 1.14, written by Peter Selinger 2001-2017
</metadata>
<g transform="translate(0.000000,512.000000) scale(0.100000,-0.100000)"
fill="#000000" stroke="none">
<path d="M1190 4759 c-82 -13 -107 -19 -171 -39 -247 -77 -462 -269 -577 -514
-30 -63 -61 -162 -78 -246 -3 -19 -7 -640 -9 -1379 -2 -1430 -2 -1422 46
-1563 80 -239 245 -436 464 -553 44 -23 142 -65 170 -71 164 -40 88 -38 1515
-38 745 0 1375 3 1400 8 323 54 574 241 720 535 41 81 75 191 87 281 10 72 10
2700 0 2765 -50 321 -259 601 -550 734 -64 29 -166 61 -247 77 -47 9 -2713 12
-2770 3z"/>
</g>
</svg>
